<svg id="Capa_1" data-name="Capa 1" xmlns="http://www.w3.org/2000/svg" viewBox="0 0 600 600"><defs><style>.cls-1{fill:#352c60;}</style></defs><title>fb</title><path class="cls-1" d="M450,.12,372.17,0c-87.41,0-143.9,58-143.9,147.66v68.08H150A12.24,12.24,0,0,0,137.8,228v98.65A12.24,12.24,0,0,0,150,338.86h78.23V587.77A12.22,12.22,0,0,0,240.5,600H342.57a12.24,12.24,0,0,0,12.24-12.23V338.86h91.47a12.22,12.22,0,0,0,12.23-12.23l0-98.65a12.24,12.24,0,0,0-12.24-12.24h-91.5V158c0-27.74,6.61-41.82,42.74-41.82l52.42,0A12.24,12.24,0,0,0,462.2,104V12.36A12.25,12.25,0,0,0,450,.12Z"/></svg>