<svg id="Capa_1" data-name="Capa 1" xmlns="http://www.w3.org/2000/svg" viewBox="0 0 600 600"><defs><style>.cls-1{fill:#352c60;}</style></defs><title>instagram</title><path class="cls-1" d="M484,0H116A116.06,116.06,0,0,0,0,116V484A116.06,116.06,0,0,0,116,600H484.06A116.06,116.06,0,0,0,600,484V116A116.07,116.07,0,0,0,484,0ZM438.49,69.38l78.86-.24,3.59,0a9.62,9.62,0,0,1,9.64,9.62V161.2a9.61,9.61,0,0,1-9.58,9.61l-82.17.28a9.62,9.62,0,0,1-9.65-9.59L428.91,79A9.61,9.61,0,0,1,438.49,69.38Zm-224.09,169a105.42,105.42,0,1,1-20,61.56A105.53,105.53,0,0,1,214.4,238.39ZM541.51,484A57.53,57.53,0,0,1,484,541.49H115.93A57.49,57.49,0,0,1,58.44,484V249.26a10.84,10.84,0,0,1,10.84-10.85H148A162.87,162.87,0,0,0,135.93,300c0,90.44,73.57,164.09,164.07,164.09S464.1,390.41,464.1,300a161.8,161.8,0,0,0-12.19-61.56h78.75a10.85,10.85,0,0,1,10.85,10.85Z"/></svg>