<svg id="Capa_1" data-name="Capa 1" xmlns="http://www.w3.org/2000/svg" xmlns:xlink="http://www.w3.org/1999/xlink" viewBox="0 0 430.12 430.12"><defs><style>.cls-1{fill:none;}.cls-2{clip-path:url(#clip-path);}.cls-3{fill:#352c60;}</style><clipPath id="clip-path"><path class="cls-1" d="M5.48,420.56H97.66V143.24H5.48Zm46.7-411C20.64,9.56,0,30.25,0,57.46,0,84.08,20,105.4,51,105.4h.62c32.15,0,52.15-21.31,52.15-47.94C103.13,30.25,83.73,9.56,52.18,9.56Zm377.94,252v159H337.93V272.19c0-37.27-13.33-62.7-46.7-62.7-25.48,0-40.64,17.14-47.3,33.72-2.44,5.93-3.06,14.18-3.06,22.48V420.56H148.65s1.24-251.29,0-277.32h92.21v39.31c-.19.29-.43.61-.61.89h.61v-.89c12.25-18.87,34.13-45.83,83.1-45.83C384.63,136.72,430.12,176.36,430.12,261.54Z"/></clipPath></defs><title>Mesa de trabajo 1</title><g class="cls-2"><rect class="cls-3" x="-5" y="4.56" width="440.12" height="421"/></g></svg>