<svg id="Capa_1" data-name="Capa 1" xmlns="http://www.w3.org/2000/svg" xmlns:xlink="http://www.w3.org/1999/xlink" viewBox="0 0 430.12 430.12"><defs><style>.cls-1{fill:none;}.cls-2{clip-path:url(#clip-path);}.cls-3{fill:#352c60;}</style><clipPath id="clip-path"><path class="cls-1" d="M8.37,79A53.4,53.4,0,0,0,0,107.53V322.59a53.15,53.15,0,0,0,6.9,25.86l135.79-152ZM267.17,214.2,223.9,252.08a13.5,13.5,0,0,1-17.69,0l-43.27-37.89L25.41,368.08a53,53,0,0,0,28.35,8.27H376.35a53.06,53.06,0,0,0,28.36-8.27Zm-52.11,9.89L402,60.54a53.1,53.1,0,0,0-25.63-6.78H53.76a52.9,52.9,0,0,0-25.61,6.78Zm215.06,98.5a53.26,53.26,0,0,1-6.9,25.86L287.41,196.5,421.75,79a53.4,53.4,0,0,1,8.37,28.56Z"/></clipPath></defs><title>Mesa de trabajo 1</title><g class="cls-2"><rect class="cls-3" x="-4.43" y="49.33" width="438.98" height="331.45"/></g></svg>