<?xml version="1.0" encoding="UTF-8"?>
<svg width="372px" height="258px" viewBox="0 0 372 258" version="1.1" xmlns="http://www.w3.org/2000/svg" xmlns:xlink="http://www.w3.org/1999/xlink">
    <!-- Generator: Sketch 53.2 (72643) - https://sketchapp.com -->
    <title>menu</title>
    <desc>Created with Sketch.</desc>
    <g id="Page-1" stroke="none" stroke-width="1" fill="none" fill-rule="evenodd">
        <g id="menu" fill="#7A6FF0" fill-rule="nonzero">
            <path d="M24.43,48.67 L347.57,48.67 C360.786174,48.67 371.5,37.9561741 371.5,24.74 C371.5,11.5238259 360.786174,0.81 347.57,0.81 L24.43,0.81 C11.2138259,0.81 0.5,11.5238259 0.5,24.74 C0.5,37.9561741 11.2138259,48.67 24.43,48.67 Z" id="Path"></path>
            <path d="M347.57,209.33 L24.43,209.33 C11.2138259,209.33 0.5,220.043826 0.5,233.26 C0.5,246.476174 11.2138259,257.19 24.43,257.19 L347.57,257.19 C360.786174,257.19 371.5,246.476174 371.5,233.26 C371.5,220.043826 360.786174,209.33 347.57,209.33 L347.57,209.33 Z" id="Path"></path>
            <path d="M347.57,105.07 L24.43,105.07 C11.2138259,105.07 0.5,115.783826 0.5,129 C0.5,142.216174 11.2138259,152.93 24.43,152.93 L347.57,152.93 C360.786174,152.93 371.5,142.216174 371.5,129 C371.5,115.783826 360.786174,105.07 347.57,105.07 L347.57,105.07 Z" id="Path"></path>
        </g>
    </g>
</svg>