<svg id="Capa_1" data-name="Capa 1" xmlns="http://www.w3.org/2000/svg" viewBox="0 0 600 600"><defs><style>.cls-1{fill:#352c60;}</style></defs><title>tw</title><path class="cls-1" d="M590.46,108.52a238,238,0,0,1-41.37,14,129.11,129.11,0,0,0,34-54.23h0a6.77,6.77,0,0,0-9.9-7.88h0A238.52,238.52,0,0,1,510,86.49a16,16,0,0,1-4,.5A16.79,16.79,0,0,1,495,82.76a129.36,129.36,0,0,0-85.59-32.3,138.23,138.23,0,0,0-41,6.32,125.32,125.32,0,0,0-84.46,90.3,138,138,0,0,0-3.07,47.63,4.63,4.63,0,0,1-1.16,3.63,4.83,4.83,0,0,1-3.57,1.61,3.54,3.54,0,0,1-.46,0C183.87,191.4,101.07,147.17,42.55,75.38h0a6.76,6.76,0,0,0-11.08.87h0a129.5,129.5,0,0,0,21,157.24A115.83,115.83,0,0,1,23,222.07h0a6.76,6.76,0,0,0-10,5.83h0A129.51,129.51,0,0,0,88.51,347.22l-2.76,0A116.27,116.27,0,0,1,64,345.17h0a6.76,6.76,0,0,0-7.71,8.71h0a129.64,129.64,0,0,0,102.4,88.18A238.7,238.7,0,0,1,25,482.66H10a9.91,9.91,0,0,0-9.69,7.47,10.26,10.26,0,0,0,4.91,11.32,355.05,355.05,0,0,0,178.4,48.1c54.84,0,106.13-10.88,152.46-32.34a336.67,336.67,0,0,0,111.55-83.59,366.4,366.4,0,0,0,68.3-114.39c15.19-40.58,23.22-83.87,23.22-125.21v-2a22,22,0,0,1,8.24-17.13,255.77,255.77,0,0,0,51.43-56.45h0a6.76,6.76,0,0,0-8.36-9.94Z"/></svg>